<?xml version="1.0" encoding="utf-8"?><svg viewBox="0 0 2000 2000" xmlns="http://www.w3.org/2000/svg" xmlns:xlink="http://www.w3.org/1999/xlink"><style>:root>svg{display:none}:root>svg:target{display:block}</style><svg viewBox="0 0 32 32" id="alarm" xmlns="http://www.w3.org/2000/svg"><path d="M16.57 8.94v8.18a.9.9 0 010 .05c-.05.96-1.56.99-1.56 0V8.94c0-1 1.56-1 1.56 0zm-5.15 1.39a1.09 1.09 0 11-2.17 0 1.09 1.09 0 012.17 0zm9.78 1.08a1.09 1.09 0 100-2.17 1.09 1.09 0 000 2.17zm-9.78 11.94a1.09 1.09 0 11-2.17 0 1.09 1.09 0 012.17 0zm4.35 3.25a1.09 1.09 0 100-2.17 1.09 1.09 0 000 2.18zm-7.61-9.83a1.09 1.09 0 11-2.18 0 1.09 1.09 0 012.18 0zm16.31 1.09a1.09 1.09 0 100-2.17 1.09 1.09 0 000 2.17zm-2.17 5.49a1.09 1.09 0 11-2.18 0 1.09 1.09 0 012.17 0zM8.75 1h14c.97 0 .97 1.5 0 1.5H16.5v1.52c6.41.4 11.5 5.88 11.5 12.6 0 3.31-1.24 6.33-3.27 8.58-.39.43-.95.8-1.26 1.28-.25.4-.23.95.11 1.3l1.36 1.4c.61.63-.36 1.58-.98.95l-1.82-1.88a1.08 1.08 0 00-1.22-.2 12 12 0 01-10.41-.04c-.41-.2-.9-.14-1.23.19L7.4 30.13c-.61.63-1.59-.32-.97-.95l1.43-1.47c.31-.32.36-.8.19-1.18-.26-.56-.92-.97-1.32-1.42a12.79 12.79 0 01-3.2-8.5C3.54 9.91 8.6 4.43 15 4.02V2.5H8.75c-.97 0-.97-1.5 0-1.5zM7.9 24.36a10.78 10.78 0 0015.66.07 11.36 11.36 0 003.08-7.82c0-4.77-2.9-8.85-6.97-10.47a10.66 10.66 0 00-7.74-.02 11.21 11.21 0 00-7.04 10.5c0 3 1.15 5.72 3.01 7.74z" fill="#fff"/></svg><svg viewBox="0 0 32 12" id="arrow" xmlns="http://www.w3.org/2000/svg"><path stroke="#000" stroke-width="2" d="M0 6h26"/><path d="M32 6l-6.75 5.2V.8L32 6z"/></svg><svg viewBox="0 0 271 270" fill="none" id="cat-pro" xmlns="http://www.w3.org/2000/svg"><path d="M247.2 93.6a30.4 30.4 0 019-9.2c2-1.4 3.2-1.4 4.4 1.2 1.6 3.8 3 7.8 1.8 12a4.58 4.58 0 00.8 4.2c1.2 1.6 2.2 3.2 3.2 4.6a12.54 12.54 0 011.8 12.4 10.86 10.86 0 00-.4 6.2c.4 1.98.4 4.02 0 6a7.5 7.5 0 01-5.4 6.4 10.42 10.42 0 00-6.4 4 2.1 2.1 0 01-1.8 1c-2.4.4-8.4-5-8.4-7.4v-1.2c.2-7.2-.2-7.8-6.8-10.8a8.78 8.78 0 01-3.6-2.4c-1.2-1.6-2.8-1.4-4.6-.8-1.8.6-2.8 1.8-2.6 3.8.6 4.84.8 9.72.6 14.6.01.56.15 1.1.4 1.6 6.2 9 8.6 19.6 11.6 29.8 2.4 7.8 6.8 12 14.8 12.6 1.28.1 2.55.3 3.8.6a8.32 8.32 0 016.8 6.4c1.4 4.2.6 5.2-3.6 5.2h-13a6.48 6.48 0 01-4.6-1.6 23.41 23.41 0 00-6.8-4 14.53 14.53 0 01-6.8-5.2 57.21 57.21 0 00-8-9c-5.6-5.8-11.6-11.4-16.8-17.4a22.76 22.76 0 01-6.4-15.2c0-1.8-.4-2.6-2.4-1.8-.6.38-1.3.59-2 .6-5.6 0-8.4 3.4-10.4 8.4-1.8 4.2-4.2 8.2-6.4 12.4a20.79 20.79 0 00-2 8.4c0 4.8 1.2 6.4 5.6 8 2.8 1 5.4 2 6.8 4.8 1.6 3.2 1.2 4-2.2 4.2h-13.6a3.75 3.75 0 01-3.8-2.2l-3.6-6a12.1 12.1 0 01-1.4-10.8c.87-3.47.93-7.1.2-10.6a16.84 16.84 0 013.4-14c1.2-1.4 1.2-2-.8-2.4a100.1 100.1 0 01-23.74-8.26.2.2 0 01-.06-.14c-6.4-2.4-7.6-2-9.4 4.6-1.6 5.6-3.2 11.2-4.4 17-1.4 6.4.2 12.4 2.2 18.4.8 2.4 3.2 2.2 5 2.8 4 1.2 7.4 2.8 9 7 1.4 3.2 1.2 3.6-2.2 3.6-3.4 0-6.8-.2-10.4 0-3.04.06-6-.93-8.4-2.8-9.6-6.4-12.4-16.2-13.2-26.8-.4-6.6-4-11.8-8.2-16.8-.8-1-1.6-1.4-2.8-.6a88.65 88.65 0 01-13.4 6 53.42 53.42 0 00-24.4 17.6 21.26 21.26 0 00-4.4 10.2c-.6 3.6.4 5.2 4 6.2s5.4 3 5.8 6.8c.2 1.6-.4 2.4-2 2.4H50.4a3.31 3.31 0 01-2.6-1.6c-2.51-3.11-3.86-7-3.8-11-.1-6.91.5-13.81 1.8-20.6a12.6 12.6 0 016.8-9.6c11.8-5.6 18-16.2 23.6-27.2 1.2-2.2.2-2.6-1.8-2.4-5.6.78-10.9 2.98-15.4 6.4-5.9 4.3-11.44 9.05-16.6 14.2a33.34 33.34 0 01-20.6 9.8C7.2 147 .4 138.8 1 125.6c.13-4.5 1.83-8.81 4.8-12.2a8.5 8.5 0 019-3c3 .8 3.8 2.4 2.6 5.4-.6 1.2-1.4 2.2-2 3.4a15 15 0 00-2 4c-2.2 6 .8 10.2 7 10.8 6.6.6 12-2.2 17-6.2a89.9 89.9 0 0016-16.6A41.58 41.58 0 0182.2 95c4.6-.6 8.6-2.6 13-3.8a83.02 83.02 0 0125.4-3.6 26 26 0 0011.6-2.2c9.8-4 20-4 30.2-2 8 1.6 16 3.6 23.8 5.6 4.64.86 9.42.73 14-.4a135.58 135.58 0 0126.8-4c5.93-.29 11.83.88 17.2 3.4 4 1.8 4 1.8 3 5.6z" fill="#000"/></svg><svg viewBox="0 0 270 270" fill="none" id="cat-slim" xmlns="http://www.w3.org/2000/svg"><path d="M170.68 29h-.76a7 7 0 00-2.92 3.18c-1.13 2.16-2 4.45-2.58 6.82a3.26 3.26 0 01-2.96 2.68A14.67 14.67 0 00151 49.24a54.62 54.62 0 00-3.7 8c-2.84 7.36-5.02 14.96-7.7 22.38-1.26 3.38-1.32 3.38-5.12 3.38-4.54 0-4.22-.7-4.28 4.3 0 1.58.48 2.38 2.16 2.3.52 0 1.3-.26 1.5.42.2.68-.48.98-.88 1.38a18 18 0 01-8.66 4.88c-3.8 1.02-7.68 1.82-11.38 3.06-9.5 3.18-18.28 7.62-25.12 15.14a56 56 0 00-9.48 15.68c-7.34 17.28-10.9 35.48-13.66 53.86a375.77 375.77 0 00-2.92 26C61.4 214.3 61 218.64 61 223h66.66a4.36 4.36 0 00-.46-2.56 10 10 0 00-7.66-6.14c-1.4-.32-1.56-.74-.7-1.84a20.69 20.69 0 003.18-6.2c3.26-9.62 4.52-19.66 6.1-29.6.9-7.6 3.23-14.94 6.88-21.66a43.21 43.21 0 0111.18-12.74c1.66-1.26 1.72-1.26 2 .88.2 1.42.24 2.88.34 4.32.6 9.45.48 18.93-.36 28.36-.75 7.31-.86 14.67-.3 22 .8 8.5 2.31 16.93 4.54 25.18H179a10.82 10.82 0 00-8.48-8.88 18 18 0 00-7.52.4c-1.2.28-1.7 0-1.8-1.3a112.73 112.73 0 012-31.64c2.67-12 4.71-24.14 6.12-36.36a35.5 35.5 0 014.56-14c2.38-4.24 4.46-8.64 6.8-12.9a11.74 11.74 0 00.84-10.38c-.54-1.42-1.06-2.86-1.72-4.22-2-3.9-4-7.76-5.84-11.7-.98-2-.76-2.24 1.42-2.3 3.26 0 3.26 0 3.32-3.28v-1.32c0-1.38-.52-2.14-2-2h-3.04c-1.38 0-1.78-.58-1.44-2a12.48 12.48 0 0110.26-8.86 44 44 0 0113.24.86 2 2 0 002.5-1.28c.8-2 1.68-4 2.58-6a2 2 0 00-.2-2.28c-6.4-8.12-13.34-15.7-22.8-20.56a2.98 2.98 0 01-1.76-2.24 39.16 39.16 0 00-2.54-8.32 7 7 0 00-2.82-3.44z" fill="#000"/></svg><svg viewBox="0 0 32 32" fill="none" id="eat" xmlns="http://www.w3.org/2000/svg"><path fill-rule="evenodd" clip-rule="evenodd" d="M20.62 1.08a1 1 0 011.09.21c.9.91 2.1 2.88 3.06 5.92A42.6 42.6 0 0126.5 20a1 1 0 01-1 1H22v9a1 1 0 11-2 0V2a1 1 0 01.62-.92zM22 19h2.5a39.62 39.62 0 00-1.64-11.19 22.4 22.4 0 00-.86-2.3V19zM8 1a1 1 0 011 1v28a1 1 0 11-2 0V2a1 1 0 011-1z" fill="#fff"/><path fill-rule="evenodd" clip-rule="evenodd" d="M3.5 1a1 1 0 011 1v5.5c0 .56.2 1.32.7 1.92.48.56 1.31 1.08 2.8 1.08a1 1 0 110 2 5.41 5.41 0 01-4.33-1.8A5.07 5.07 0 012.5 7.5V2a1 1 0 011-1z" fill="#fff"/><path fill-rule="evenodd" clip-rule="evenodd" d="M12.5 1a1 1 0 00-1 1v5.5c0 .56-.2 1.32-.7 1.92-.48.56-1.31 1.08-2.8 1.08a1 1 0 000 2c2.01 0 3.43-.73 4.33-1.8a5.07 5.07 0 001.17-3.2V2a1 1 0 00-1-1z" fill="#fff"/></svg><svg viewBox="0 0 22 22" fill="none" id="email" xmlns="http://www.w3.org/2000/svg"><path stroke="#222" stroke-width="1.3" d="M2.65 9.85v8m17-8v8M2 17.2h18M2 5.2h18m-.65 1.83L11 13.53l-8.35-6.5V5.5h16.7v1.53z"/></svg><svg viewBox="0 0 33 33" fill="none" id="facebook" xmlns="http://www.w3.org/2000/svg"><path d="M23 2.75h-3.5c-1.55 0-3.03.71-4.12 1.97a7.3 7.3 0 00-1.71 4.77v4.05h-3.5v5.39h3.5V29.7h4.66V18.93h3.5l1.17-5.4h-4.67V9.5c0-.36.13-.7.35-.95.21-.26.51-.4.82-.4H23v-5.4z" stroke="#666" stroke-width="1.1" stroke-linecap="round" stroke-linejoin="round"/></svg><svg viewBox="0 0 78 80" fill="none" id="gift" xmlns="http://www.w3.org/2000/svg"><path d="M64.02 34.71H14.03a3.17 3.17 0 01-3.18-3.16v-9.47a3.17 3.17 0 013.18-3.16h49.98a3.17 3.17 0 013.19 3.16v9.47a3.17 3.17 0 01-3.18 3.16zM14.03 21.35c-.4 0-.74.33-.74.73v9.47c0 .41.33.74.74.74h49.98c.41 0 .75-.33.75-.74v-9.47c0-.4-.34-.73-.75-.73H14.03z" fill="#fff"/><path d="M57.04 67.15H21a6.11 6.11 0 01-6.13-6.09V33.5c0-.67.55-1.2 1.22-1.2.68 0 1.22.53 1.22 1.2v27.56A3.68 3.68 0 0021 64.73h36.04a3.68 3.68 0 003.7-3.67V33.5a1.22 1.22 0 012.44 0v27.56a6.11 6.11 0 01-6.14 6.09z" fill="#fff"/><path d="M39.02 67.15c-.67 0-1.22-.54-1.22-1.21V33.5c0-.67.55-1.2 1.22-1.2.68 0 1.22.53 1.22 1.2v32.44c0 .67-.54 1.2-1.22 1.2zM23.81 21.34a7.8 7.8 0 01-3.17-10.6A7.9 7.9 0 0131.3 7.6c5.82 3.13 8.96 11.86 9.09 12.23l-2.3.8c-.03-.08-2.96-8.22-7.95-10.9a5.46 5.46 0 00-7.36 2.17 5.39 5.39 0 002.2 7.32l-1.17 2.13z" fill="#fff"/><path d="M54.23 21.34l-1.16-2.13a5.38 5.38 0 00-1.03-9.92 5.43 5.43 0 00-4.14.43c-4.98 2.68-7.91 10.82-7.94 10.9l-2.3-.8c.13-.37 3.27-9.1 9.08-12.23a7.86 7.86 0 0111.29 9.1c-.6 2-1.95 3.66-3.8 4.65zm7.72 29.59H16.09c-.67 0-1.22-.54-1.22-1.21 0-.67.55-1.21 1.22-1.21h45.86c.67 0 1.22.54 1.22 1.21 0 .67-.55 1.21-1.22 1.21z" fill="#fff"/></svg><svg viewBox="0 0 60 60" id="htmlacademy" xmlns="http://www.w3.org/2000/svg"><path d="M30.2 5H30L10.3 7.1v36.2L30 55l19.7-11.7V7.1L30.2 5zm17 36.8L30 52 12.8 41.8V27l17.1 10.2V39l-11.7-7v1.8L30 40.9v1.9l-11.8-7v1.8l11.8 7 11.9-7.1v-7.6l5.3-3.2v15.1zm-.1-17l-4.7 2.8-2.2 1.3-10.3-6.1v1.8l8.8 5.3h-.1l-.2.1-1.3.7-7.3-4.3v1.8l5.8 3.4-1.4.9-4.3-2.6v1.8l2.9 1.7-2.9 1.7-17-10.1 17-10.2 17.2 10zm.1-1.8L29.9 12.8 12.8 23V9.4L30 7.6l17.2 1.8V23z"/></svg><svg viewBox="0 0 33 33" fill="none" id="instagram" xmlns="http://www.w3.org/2000/svg"><path d="M16.48 6.09c1.91 0 3.48.02 4.7.07 1.03.04 1.95.22 2.75.54a5.73 5.73 0 013.33 3.32c.31.8.5 1.73.54 2.76.04 1.22.07 2.78.07 4.7 0 1.91-.03 3.48-.07 4.7a8.63 8.63 0 01-.54 2.75 5.73 5.73 0 01-3.33 3.33c-.8.31-1.72.5-2.76.54-1.21.04-2.78.07-4.7.07-1.9 0-3.47-.03-4.69-.07a8.63 8.63 0 01-2.76-.54 5.73 5.73 0 01-3.32-3.33c-.32-.8-.5-1.72-.54-2.76-.05-1.21-.07-2.78-.07-4.7 0-1.9.02-3.47.07-4.69.04-1.03.22-1.95.54-2.76A5.73 5.73 0 019.02 6.7c.8-.32 1.73-.5 2.76-.54 1.22-.05 2.78-.07 4.7-.07zm0 1.48c-2 0-3.62.02-4.88.07-.8.03-1.55.17-2.24.43a4.1 4.1 0 00-2.3 2.29c-.25.69-.39 1.43-.42 2.24-.05 1.26-.07 2.89-.07 4.88 0 1.99.02 3.61.07 4.87.03.81.17 1.56.43 2.25a4.1 4.1 0 002.29 2.29c.69.25 1.43.4 2.24.43 1.26.04 2.89.06 4.88.06 1.99 0 3.61-.02 4.87-.06a7.37 7.37 0 002.25-.43 4.1 4.1 0 002.29-2.3c.25-.68.4-1.43.43-2.24.04-1.26.06-2.88.06-4.87 0-2-.02-3.62-.06-4.88a7.21 7.21 0 00-.43-2.24 4.1 4.1 0 00-2.3-2.3 7.21 7.21 0 00-2.24-.42c-1.26-.05-2.88-.07-4.87-.07zm0 14.47a4.4 4.4 0 003.22-1.34 4.4 4.4 0 001.34-3.22 4.4 4.4 0 00-1.34-3.23 4.4 4.4 0 00-3.22-1.33 4.4 4.4 0 00-3.23 1.33 4.4 4.4 0 00-1.33 3.23 4.4 4.4 0 001.33 3.22 4.4 4.4 0 003.23 1.34zm0-10.4c1.61 0 3 .57 4.13 1.7a5.63 5.63 0 011.7 4.14c0 1.61-.56 3-1.7 4.13a5.63 5.63 0 01-4.13 1.7c-1.62 0-3-.56-4.14-1.7a5.63 5.63 0 01-1.7-4.13c0-1.62.57-3 1.7-4.14a5.63 5.63 0 014.14-1.7zm7.45-.23a1.36 1.36 0 01-1.4 1.35c-.36 0-.68-.13-.94-.4a1.3 1.3 0 01-.4-.95 1.36 1.36 0 011.35-1.39c.38 0 .7.14.98.42.28.27.41.6.41.97z" fill="#666"/></svg><svg viewBox="0 0 32 32" fill="none" id="leaf" xmlns="http://www.w3.org/2000/svg"><g clip-path="url(#ka)"><path d="M29.84 2.77a.95.95 0 00-.9-.77h-.01c-4.94.03-16.95.92-21.8 8.38-2.51 3.88-2.73 8.91-.64 14.96l.07.13a25.93 25.93 0 00-1.04 3.32c-.11.54.21 1.07.72 1.19l.2.02c.43 0 .81-.32.9-.79.03-.1 2.42-10.37 10.86-16.38.43-.3.55-.93.26-1.38a.9.9 0 00-1.3-.28c-4.79 3.4-7.74 8-9.47 11.65-1.24-4.57-.92-8.37.99-11.3 3.74-5.76 12.62-7.15 17.98-7.45-1.16 1.8-2.41 5.1-2.41 10.93 0 3.12-.83 5.52-2.47 7.14-2.62 2.6-6.88 2.83-10 2.58-.51-.04-.96.38-1 .93-.04.55.35 1.03.86 1.07.63.05 1.3.08 1.98.08 3.18 0 6.87-.66 9.43-3.2 2.04-2 3.07-4.9 3.07-8.6 0-9.1 3.22-11.1 3.23-11.1.4-.21.6-.68.5-1.13z" fill="#fff"/></g><defs><clipPath id="ka"><path fill="#fff" d="M0 0h32v32H0z"/></clipPath></defs></svg><svg viewBox="0 0 26 26" fill="none" id="ok" xmlns="http://www.w3.org/2000/svg"><path d="M10 19.5l-7.6-8.6L1 12.48l9 10.19L25 5.7 23.6 4 10 19.5z" fill="#68B738"/></svg><svg viewBox="0 0 23 22" id="phone" xmlns="http://www.w3.org/2000/svg"><path d="M18.9 9.75h-8.5v1.2h8.5l-2.1 2.11.9.9 3.1-3.1a.75.75 0 000-.9l-3.1-3.12-.9.9 2.1 2.01zM9.1 19.79v-6.22a.65.65 0 00-.6-.6H4.1a1.23 1.23 0 001.2 1.2h2.5v5.02H4.1a1.78 1.78 0 01-1.9-1.71V3.43a1.78 1.78 0 011.7-1.8h3.9v5.01H5.4a1.22 1.22 0 00-1.2 1.2h4.4a.65.65 0 00.6-.6V.92a.86.86 0 00-.7-.6H4.1A3 3 0 001 3.23v13.95a2.9 2.9 0 002.9 3.1h4.6a.5.5 0 00.6-.5z"/></svg><svg viewBox="0 0 2000 2000" id="sprite" xmlns="http://www.w3.org/2000/svg"/><svg viewBox="0 0 32 33" fill="none" id="tub" xmlns="http://www.w3.org/2000/svg"><path d="M21.78 19.47c-1.71 0-3.1 1.48-3.1 3.3 0 1.83 1.4 3.3 3.1 3.3 1.7 0 3.08-1.47 3.08-3.3 0-1.82-1.38-3.3-3.08-3.3zm0 5.02c-.89 0-1.6-.77-1.6-1.71 0-.95.71-1.72 1.6-1.72.88 0 1.6.77 1.6 1.72 0 .94-.72 1.7-1.6 1.7zM12.6.99c-1.75 0-3.18 1.52-3.18 3.4 0 1.89 1.43 3.41 3.19 3.41s3.18-1.52 3.18-3.4c0-1.89-1.42-3.41-3.18-3.41zm0 5.48c-1.06 0-1.93-.93-1.93-2.07 0-1.15.87-2.07 1.94-2.07 1.07 0 1.93.92 1.93 2.07 0 1.14-.86 2.07-1.93 2.07zM9.23 18.61c-1.3 0-2.34 1.12-2.34 2.5 0 1.39 1.04 2.5 2.34 2.5 1.3 0 2.34-1.11 2.34-2.5 0-1.38-1.05-2.5-2.34-2.5zM9 20.5c-.46 0 1.16 1.1 1.16.61 0-.49-1.62.39-1.16.39.46 0 1.06-.88 1.06-.39 0 .5-.6-.61-1.06-.61zm10.5-9.74s3.04-.84 6.18 1.5c.9.76 1.76 1.33 1.15 2.12-.34.34-.64.66-1.72-.53a6.92 6.92 0 00-5.61-1.44c-1.13.24-1.96.55-3.56 2.15a8.27 8.27 0 01-6.5 2.5c-2.52-.24-3.84-1.27-5.24-2.55-.3-.42-.3-.87-.12-1.13.17-.26.83-.52 1.2-.13.37.4 2.1 1.97 3.82 2.07 1.72.1 3.44.21 5.74-1.96 2.3-2.18 3.46-2.34 4.66-2.6z" fill="#fff"/><mask id="oa" fill="#fff"><path d="M29.65 27.82V9.16c0-.58-.38-.65-.53-.66h-.5c-.5 0-.54.56-.54.74v18.6a2.68 2.68 0 01-.82 1.89c-.81.7-1.62.6-1.62.6s-20.18 0-20.66-.03a2.3 2.3 0 01-1.6-1c-.57-.8-.46-1.85-.46-1.85V9.3c0-.83-.67-.8-.67-.8h-.3c-.54 0-.6.58-.6.77v18.54c0 1.33.46 2.4 1.55 3.33 1.1.94 2.38.86 2.38.86h20.58c.86 0 1.98-.42 2.91-1.56.93-1.14.88-2.63.88-2.63z"/></mask><path d="M29.65 27.82V9.16c0-.58-.38-.65-.53-.66h-.5c-.5 0-.54.56-.54.74v18.6a2.68 2.68 0 01-.82 1.89c-.81.7-1.62.6-1.62.6s-20.18 0-20.66-.03a2.3 2.3 0 01-1.6-1c-.57-.8-.46-1.85-.46-1.85V9.3c0-.83-.67-.8-.67-.8h-.3c-.54 0-.6.58-.6.77v18.54c0 1.33.46 2.4 1.55 3.33 1.1.94 2.38.86 2.38.86h20.58c.86 0 1.98-.42 2.91-1.56.93-1.14.88-2.63.88-2.63z" fill="#fff"/><path d="M29.65 27.82h-20v.38l.01.39 19.99-.77zM29.12 8.5l.71-19.99h-.71v20zm-1.04.74l-20-.15v.15h20zm0 .06h-20 20zm0 18.54l-19.99-.76v.02l19.99.74zm-.82 1.89l13.03 15.16.44-.37.4-.4-13.87-14.4zm-1.62.6l2.26-19.87-1.13-.13h-1.13v20zM4.98 30.3l-3.4 19.71 1.14.2 1.15.06L4.98 30.3zm-1.6-1l-16.35 11.52L3.39 29.3zm-.46-1.85l19.9 2.1.1-1.05v-1.05h-20zM2.25 8.5v20h.39l.38-.01L2.25 8.5zm-.9.78l-20-.29v.29h20zM2.9 31.15l-13.02 15.18L2.9 31.15zm2.38.86V12h-.65l-.64.04L5.28 32zm23.5-1.56L44.25 43.1 28.78 30.45zm20.87-2.63V9.16h-40v18.66h40zm0-18.66a20.54 20.54 0 00-19.81-20.64L28.4 28.48A19.46 19.46 0 019.65 9.16h40zM29.12-11.5h-.5v40h.5v-40zm-.5 0A20.47 20.47 0 009.92.62c-1.8 4-1.83 7.56-1.84 8.47l40 .3c0 .73-.02 3.91-1.67 7.6a19.47 19.47 0 01-17.8 11.51v-40zM8.08 9.24v.05h40v-.04h-40zm0 .05v.01h40-40zm0 .02v10.51a8359.27 8359.27 0 010 7.25c0 .79 0 .45.01.01l39.97 1.52c.02-.51.02-1.37.02-1.45a1362.33 1362.33 0 000-7.34V9.3l-40 .02zm.01 17.79c.05-1.35.38-7.05 5.28-11.77l27.77 28.8a22.68 22.68 0 006.92-15.54L8.1 27.09zm6.13-12.54a17.51 17.51 0 0112.43-4.2 19.31 19.31 0 011.17.1h.06s.02 0-2.24 19.87a2063.4 2063.4 0 00-2.24 19.88h.05a14.8 14.8 0 001.25.1 21.38 21.38 0 005.56-.45A22.49 22.49 0 0040.3 44.9L14.22 14.56zm11.42 15.77v-20h-3.16a17381.94 17381.94 0 01-16.39-.02c-1.07 0-.61 0 0 .03L3.88 50.27c.97.06 7.17.06 11.6.06h10.16v-20zM8.38 10.6c.43.08 2.52.43 4.93 1.66 2.57 1.3 4.78 3.2 6.4 5.51l-32.67 23.07c5 7.08 11.87 8.72 14.55 9.18L8.38 10.6zm11.34 7.18a17.34 17.34 0 013.13 11.4 21.7 21.7 0 01-.03.28v.08c0 .01 0 .02-19.9-2.08l-19.89-2.09v.09a31.34 31.34 0 00-.07.78 22.65 22.65 0 00.12 4.2 22.66 22.66 0 003.95 10.4l32.69-23.06zm3.2 9.68V9.3h-40v18.14h40zm0-18.14A20.74 20.74 0 003.28-11.47a20.44 20.44 0 00-1.76-.01H1.5c-.01 0-.03 0 .75 19.98.77 20 .75 20 .75 20h-.07a28.65 28.65 0 01-1.65-.01 19.35 19.35 0 01-16-10.04 19.03 19.03 0 01-2.36-9.13h40zM2.25-11.49h-.3v40h.3v-40zm-.3 0A20.52 20.52 0 00-16.68.34 21.17 21.17 0 00-18.64 9l40 .58c-.02.76-.05 4-1.8 7.72A19.44 19.44 0 011.95 28.5v-40zm-20.6 20.77v18.54h40V9.28h-40zm0 18.54c0 7.06 2.92 13.7 8.53 18.51l26.05-30.35a15.62 15.62 0 014 5.37 15.72 15.72 0 011.42 6.47h-40zm8.53 18.51a23.59 23.59 0 0016.56 5.65h.06l.03-.01h.01c.01 0 .02 0-1.26-19.96a2536.38 2536.38 0 01-1.26-19.96h.03A537.28 537.28 0 015 12a17.44 17.44 0 013.65.36c1.88.4 4.64 1.34 7.29 3.6l-26.05 30.36zm15.4-14.32v20h20.63l-.1-40H5.27v20zM25.9 52c7.1-.02 13.8-3.34 18.35-8.9L13.3 17.8A16.17 16.17 0 0125.8 12l.11 40zm18.36-8.91a23.97 23.97 0 005.38-15.11 22.37 22.37 0 00-.02-.9v-.04l-19.98.77-19.99.76v-.04a23.42 23.42 0 01.01-1.62 16.04 16.04 0 013.6-9.11l31 25.29z" fill="#fff" mask="url(#oa)"/></svg><svg viewBox="0 0 33 33" fill="none" id="vkontakte" xmlns="http://www.w3.org/2000/svg"><path d="M1.1 10.49c0-.86.54-1.32 1.65-1.38L7 9.13c.29 0 .48.13.57.38.44 1.26.93 2.34 1.47 3.26.54.91 1.25 1.96 2.13 3.15.07.15.2.23.37.23.13 0 .24-.06.31-.18l.09-.27.03-4.36c0-.3-.08-.5-.25-.6-.16-.1-.46-.17-.9-.22-.34-.06-.5-.24-.5-.56 0-.07 0-.12.02-.15.4-1.09 1.54-1.63 3.43-1.63l1.6-.03c.72 0 1.32.16 1.8.48.47.32.7.82.7 1.5v5.72a.7.7 0 00.38.12c.28 0 .53-.15.74-.45 2.1-2.58 3.23-4.3 3.4-5.18a1.73 1.73 0 01.71-.78c.3-.19.57-.31.8-.38a.63.63 0 01.26-.05h4.42l.29.03a1 1 0 01.88.47c.08.1.13.21.16.33a2.26 2.26 0 01.07.55v.18a5.9 5.9 0 01-1.01 2.2c-.55.78-1.24 1.62-2.07 2.53-.84.9-1.36 1.5-1.57 1.78-.17.2-.26.39-.26.56 0 .13.08.28.23.45l4.17 4.63c.22.27.34.56.34.88 0 .38-.17.7-.51.95-.35.25-.76.4-1.23.43l-.49.03h-4.34a1 1 0 00-.11 0l-.11.02c-.42 0-.81-.16-1.18-.48a245.7 245.7 0 01-2.68-2.96 1.5 1.5 0 00-.4-.33l-.3 1.16-.27 1.08-.09.42c-.19.6-.58.94-1.2 1.06l-.4.03h-2.8c-1.57 0-3.15-.64-4.72-1.92a19.62 19.62 0 01-4.23-4.94 46.13 46.13 0 01-3.52-7.05 1.8 1.8 0 01-.14-.73zM18.24 17c-.4 0-.76-.1-1.09-.29-.32-.19-.48-.45-.48-.79v-5.78c0-.34-.1-.58-.29-.72-.19-.14-.52-.21-1-.21l-1.62.05c-.82 0-1.44.12-1.86.37.84.36 1.26.93 1.26 1.71v4.43c-.04.42-.23.77-.57 1.04-.35.28-.73.42-1.15.42-.57 0-1-.24-1.3-.73a25.68 25.68 0 01-3.32-5.63l-.26-.66-3.8-.02c-.24 0-.38.01-.4.04-.04.02-.05.1-.05.21 0 .15.02.31.06.48l.6 1.4c1.6 3.64 3.33 6.51 5.2 8.6 1.88 2.1 3.72 3.15 5.53 3.15h2.85c.12 0 .2-.03.26-.09s.1-.17.14-.34l.06-.25.54-2.21c.15-.3.29-.5.4-.6.21-.19.46-.28.74-.28.46 0 .93.24 1.4.73l2.43 2.71c.15.22.31.33.48.33h4.72c.57 0 .85-.13.85-.38a.44.44 0 00-.08-.25l-4.14-4.55a1.65 1.65 0 01-.49-1.13c0-.4.15-.79.46-1.16.25-.33.73-.9 1.44-1.67.71-.78 1.34-1.51 1.87-2.19.53-.68.88-1.3 1.06-1.85l.08-.32a.35.35 0 01-.03-.17c0-.07 0-.14-.03-.19h-4.48c-.28.1-.51.25-.68.46l-.17.47c-.48 1.16-1.73 2.95-3.74 5.36-.4.34-.87.5-1.4.5z" fill="#666"/></svg></svg>