<svg width="202" height="60" viewBox="0 0 252 60" fill="none" xmlns="http://www.w3.org/2000/svg"><g clip-path="url(#a)"><path d="M59.88 24a25.61 25.61 0 1 0-27.37 35.2c-.58-2.09-1.17-4.4-1.69-6.85 1.51.98 3.1 1.83 4.76 2.55 0 0 .12 2.16.28 4.57 1.79.03 3.57-.13 5.33-.47-.05-.25-.05-.5 0-.76.29-1.87 1.09-5.24 1.25-7.41a15.22 15.22 0 0 0 2.9-3.71l-.06.44c-.55 4.26-1.7 8.81-2.4 10.07-.23.42-.5.8-.83 1.15A25.64 25.64 0 0 0 59.88 24Zm-1.47 3.79c-.44.43-1.35.72-1.5-.58-.15-1.3-.19-2.21-.19-2.21s-1.93-3.43-2.65-3.47c-.72-.04-5.83 3.47-7.18 5-1.17 1.29-1.4 1.2-1.4 3.47 0 1.71.22 8.17.1 13.11l-8.15 2.17a64 64 0 0 1-7.8 1.72l-1-5.83h-.14L25.93 28s-3.81-1.44-5.21-1.83a3.76 3.76 0 0 0-4 .63 5.07 5.07 0 0 0-1.73 3.85c.21.46.37.95.48 1.45.05.48-1.2.43-2 .43s-.92-1.44-.29-3.13c.5-1.3 1.1-2.55 1.82-3.74a11.87 11.87 0 0 1 2.07-2.89s.14-.34 1.25-.24c1.11.1 7.28.43 7.28.43l.05-2.27c6.7-.93 13.47-1.37 20.24-1.34v1.83a22.52 22.52 0 0 1 8.14-2 .91.91 0 0 1 .77.39c.34.43 2.41 3 2.65 3.37a28 28 0 0 1 1.83 3 6.24 6.24 0 0 1-.87 1.84v.01Z" fill="#FDC305"/><path d="m56.46 21.67 1 1.29a28 28 0 0 1 1.83 3 6.24 6.24 0 0 1-.86 1.78c-.44.43-1.35.72-1.5-.58-.15-1.3-.21-2.16-.21-2.16s-1.93-3.43-2.65-3.47c-.72-.04-5.83 3.47-7.18 5-1.17 1.29-1.4 1.2-1.4 3.47 0 1.5.17 6.65.13 11.23 1.81.2 4.47.7 5.27 1.88 0 0-.29-7.18 7.81-3.42 0 0 .28-9.79 11.46-7.28a43.72 43.72 0 0 0-13.7-10.74ZM45.93 19.35a90.45 90.45 0 0 0-1.4-16.53s-.15-1.3-.87-.24c-.6 1.27-1 2.62-1.2 4a70.88 70.88 0 0 0-12.82.34c-.82-2.75-2.22-4-2.89-3.67-.67.33-.75 3.28-.75 3.28l-.33 14.16c6.71-.93 13.48-1.37 20.26-1.34Z" fill="#F06351"/><path d="M45.35 47.12c.13-1.07.2-2.49.24-4.06l-8.15 2.17a64 64 0 0 1-7.8 1.77l1.11 5c0 .11 0 .22.07.33 1.51.98 3.1 1.83 4.76 2.55a42.42 42.42 0 0 0 6.88-4.13v.06a15.22 15.22 0 0 0 2.89-3.69Z" fill="#E55645"/><path d="M32 16.22c-.05-.1 1 .68 1.41.92.41.24.61.42.61.59 0 .17-.26.34-.62.34s-.92-.12-1-.26c-.08-.14.6 0 .94 0h.29A8.08 8.08 0 0 1 32 16.22ZM39.5 16.33s-1 1.28-1.09 1.34c-.09.06-.17.34.19.29a8.1 8.1 0 0 0 1.22-.28c.11-.06.07-.2-.12-.18-.19.02-.68.05-1 .11l.85-1.27s.03-.12-.05-.01ZM36.36 22.44c.46-.2.85-.56 1.09-1 .28-.66 0-.91-.44-1-.6-.11-1.23.01-1.75.34-.39.37-.34.73 0 1 .34.26.7.49 1.1.66Z" fill="#000"/><path d="M36 23.7c-.11.23-.27.43-.46.6-.28.23-.63.36-1 .38-.55.05-1.1-.1-1.54-.44a2 2 0 0 1-.53-.45 1 1 0 0 0-.36-.25s.75 4.11 2.57 4.77c1.82.66 2.16-.76 2.21-1.14a5.63 5.63 0 0 0-.82-3.24c0-.3-.02-.1-.07-.23Z" fill="#F06351"/><path d="M34.3 24.84a3.5 3.5 0 0 1-2.35-1.43.15.15 0 0 1 0-.2.14.14 0 0 1 .2 0 3.22 3.22 0 0 0 2.11 1.31 2.1 2.1 0 0 0 1.64-1l.14-.19.1.22s.38.76 1 .8c.62.04 1.06-.42 1.63-1.29a.14.14 0 0 1 .24.16c-.67.98-1.3 1.45-1.89 1.41A1.55 1.55 0 0 1 36 23.9a2.26 2.26 0 0 1-1.7.94Z" fill="#000"/><path d="M36.26 38.3a3.75 3.75 0 1 0 0-7.5 3.75 3.75 0 0 0 0 7.5Z" fill="#FDC305"/><path d="m41.23 31.5-3.13 1.31 1.15-5.63-7.5 9.76 3.13-1.31-1.15 5.64 7.5-9.77Zm-7.39 3.83L38 29.92l-.81 4 2-.82L35 38.52l.81-4-1.97.81ZM32.44 33.86a1.12 1.12 0 1 0 0-2.24 1.12 1.12 0 0 0 0 2.24ZM38.96 37.92a.79.79 0 1 0 0-1.58.79.79 0 0 0 0 1.58ZM39.92 35.75a.35.35 0 1 0 0-.7.35.35 0 0 0 0 .7Z" fill="#111"/><path d="M45.88 21.16a57.47 57.47 0 0 0-5.09 5.21 31.88 31.88 0 0 1-5.31 4.9c-.22-.53-1.63-1.52-1.63-1.52s-3.14-2.15-5.2-3.84a31.9 31.9 0 0 1-3.14-3l-2-.11a22.63 22.63 0 0 0 12 8.84c.86-.14 3.28-1.87 5.09-3.28a57.66 57.66 0 0 0 6-5.91c.5-.6.88-1.27 1.14-2a20.4 20.4 0 0 0-1.86.71Z" fill="#F06351"/><path d="m65.22 3.5-8.46 9.44-1.22-1.99L63.69 0l1.53 3.5ZM62.65 17.26l5.54-4.11-.78-3.74-5.4 4.81.64 3.04ZM59.92 49.37l6.13 3.18 3.01-2.34-6.69-2.75-2.45 1.91ZM1.95 5.97l3.07-3.36 9.29 9-1.22 2.28L1.95 5.97ZM7.38 16.28l-4.7-3.13-2.4 3.87 5.15 2.4 1.95-3.14ZM13.91 52.55 9.36 55.9l2.8 3.58 4.02-4.02-2.27-2.91Z" fill="#FDC305"/><path d="M25.93 28s-3.81-1.44-5.21-1.83a3.76 3.76 0 0 0-4 .63 5.07 5.07 0 0 0-1.73 3.85c.21.46.37.95.48 1.45.05.48-1.2.43-2 .43s-.92-1.44-.29-3.13c.5-1.3 1.1-2.55 1.82-3.74-5.45 2.84-15 9.4-15 9.4 2.73-.16 5.47-.08 8.19.24 5.25.53 5 4.67 5 4.67 1.85-.5 3.73-.88 5.63-1.11 2.12-.14 2.27 2.12 2.27 2.12l.53 3.86c.8-.87 1.7-1.66 2.65-2.36a6.06 6.06 0 0 1 4.38-1.3L25.93 28Z" fill="#F06351"/><path d="M85.66 42a8.29 8.29 0 0 1-1.4-5.19v-7.5a8.42 8.42 0 0 1 1.38-5.24c.93-1.2 2.51-1.79 4.75-1.78 2.24 0 3.76.53 4.55 1.57a6.72 6.72 0 0 1 1.33 4.49v1.76h-4.14V28.2c0-.5-.05-1-.13-1.5-.05-.36-.21-.7-.47-.95a1.56 1.56 0 0 0-1.15-.37 1.46 1.46 0 0 0-1.5.75c-.26.7-.38 1.45-.34 2.2v9.52c-.05.75.09 1.5.39 2.2a1.48 1.48 0 0 0 1.45.73 1.35 1.35 0 0 0 1.4-.74c.24-.7.35-1.45.31-2.19v-2h4.14v1.73A7.25 7.25 0 0 1 95 42.19c-.88 1.1-2.4 1.64-4.56 1.64-2.16 0-3.85-.6-4.78-1.83ZM101.91 22.58h4.74l4 21h-3.94l-.71-4.64h-3.32l-.8 4.61h-4l4.03-20.97Zm3.65 13.72-1.26-8.44-1.25 8.44h2.51ZM113.72 25.74h-3.24v-3.16h10.72v3.16H118v17.81h-4.29l.01-17.81Z" fill="#111"/><path d="M129.61 22.58h8.13v2.18h-5.2v6.93h4.22v2.07h-4.22v7.69h5.25v2.1h-8.18V22.58ZM140.15 22.58h2l6 13.93V22.58h2.44v21h-1.87l-6-14.32v14.29h-2.48l-.09-20.97ZM153.82 22.58h8.12v2.18h-5.2v6.93H161v2.07h-4.22v7.69H162v2.1h-8.18V22.58ZM164.35 22.58h4.22a7 7 0 0 1 4.67 1.31c1 .87 1.49 2.29 1.49 4.26 0 2.67-.86 4.3-2.59 4.89l3 10.51h-2.84l-2.75-9.84h-2.27v9.84h-2.93V22.58Zm4 9c.96.1 1.93-.18 2.7-.76a3.57 3.57 0 0 0 .82-2.71 5.85 5.85 0 0 0-.29-2 1.89 1.89 0 0 0-1-1.08 4.76 4.76 0 0 0-2.05-.35h-1.29v6.94l1.11-.04ZM178.67 42a9.25 9.25 0 0 1-1.27-5.35v-7c-.03-1.35.13-2.7.5-4 .29-.98.9-1.83 1.74-2.41a5.9 5.9 0 0 1 3.36-.84 5.26 5.26 0 0 1 4.18 1.48 7 7 0 0 1 1.28 4.63v.78h-2.75v-.65a11.5 11.5 0 0 0-.18-2.32 2 2 0 0 0-.76-1.23 3 3 0 0 0-1.72-.41c-.65-.06-1.3.14-1.81.56-.42.4-.69.91-.77 1.48-.13.82-.18 1.66-.17 2.49V37a7.52 7.52 0 0 0 .59 3.46 2.83 2.83 0 0 0 4.47-.09c.48-1.15.7-2.4.61-3.65v-1.48h-2.66v-2.07h5.3v10.38h-1.81l-.29-2.41a3.69 3.69 0 0 1-3.73 2.67 4.66 4.66 0 0 1-4.11-1.81ZM194.69 36.15l-4.53-13.57h2.72l3.21 10.12 3.16-10.12H202l-4.5 13.57v7.4h-2.8l-.01-7.4Z" fill="#444"/></g><defs><clipPath id="a"><path fill="#fff" d="M0 0h201.99v59.48H0z"/></clipPath></defs></svg>