<svg xmlns="http://www.w3.org/2000/svg" viewBox="0 0 32 32"><path d="M16.57 8.94v8.18a.9.9 0 0 1 0 .05c-.05.96-1.56.99-1.56 0V8.94c0-1 1.56-1 1.56 0Zm-5.15 1.39a1.09 1.09 0 1 1-2.17 0 1.09 1.09 0 0 1 2.17 0Zm9.78 1.08a1.09 1.09 0 1 0 0-2.17 1.09 1.09 0 0 0 0 2.17Zm-9.78 11.94a1.09 1.09 0 1 1-2.17 0 1.09 1.09 0 0 1 2.17 0Zm4.35 3.25a1.09 1.09 0 1 0 0-2.17 1.09 1.09 0 0 0 0 2.18Zm-7.61-9.83a1.09 1.09 0 1 1-2.18 0 1.09 1.09 0 0 1 2.18 0Zm16.31 1.09a1.09 1.09 0 1 0 0-2.17 1.09 1.09 0 0 0 0 2.17Zm-2.17 5.49a1.09 1.09 0 1 1-2.18 0 1.09 1.09 0 0 1 2.17 0ZM8.75 1h14c.97 0 .97 1.5 0 1.5H16.5v1.52c6.41.4 11.5 5.88 11.5 12.6 0 3.31-1.24 6.33-3.27 8.58-.39.43-.95.8-1.26 1.28-.25.4-.23.95.11 1.3l1.36 1.4c.61.63-.36 1.58-.98.95l-1.82-1.88a1.08 1.08 0 0 0-1.22-.2 12 12 0 0 1-10.41-.04c-.41-.2-.9-.14-1.23.19L7.4 30.13c-.61.63-1.59-.32-.97-.95l1.43-1.47c.31-.32.36-.8.19-1.18-.26-.56-.92-.97-1.32-1.42a12.79 12.79 0 0 1-3.2-8.5C3.54 9.91 8.6 4.43 15 4.02V2.5H8.75c-.97 0-.97-1.5 0-1.5ZM7.9 24.36a10.78 10.78 0 0 0 15.66.07 11.36 11.36 0 0 0 3.08-7.82c0-4.77-2.9-8.85-6.97-10.47a10.66 10.66 0 0 0-7.74-.02 11.21 11.21 0 0 0-7.04 10.5c0 3 1.15 5.72 3.01 7.74Z" fill="#fff"/></svg>
