<svg width="32" height="33" fill="none" xmlns="http://www.w3.org/2000/svg"><path d="M21.78 19.47c-1.71 0-3.1 1.48-3.1 3.3 0 1.83 1.4 3.3 3.1 3.3 1.7 0 3.08-1.47 3.08-3.3 0-1.82-1.38-3.3-3.08-3.3Zm0 5.02c-.89 0-1.6-.77-1.6-1.71 0-.95.71-1.72 1.6-1.72.88 0 1.6.77 1.6 1.72 0 .94-.72 1.7-1.6 1.7ZM12.6.99c-1.75 0-3.18 1.52-3.18 3.4 0 1.89 1.43 3.41 3.19 3.41s3.18-1.52 3.18-3.4c0-1.89-1.42-3.41-3.18-3.41Zm0 5.48c-1.06 0-1.93-.93-1.93-2.07 0-1.15.87-2.07 1.94-2.07 1.07 0 1.93.92 1.93 2.07 0 1.14-.86 2.07-1.93 2.07ZM9.23 18.61c-1.3 0-2.34 1.12-2.34 2.5 0 1.39 1.04 2.5 2.34 2.5 1.3 0 2.34-1.11 2.34-2.5 0-1.38-1.05-2.5-2.34-2.5ZM9 20.5c-.46 0 1.16 1.1 1.16.61 0-.49-1.62.39-1.16.39.46 0 1.06-.88 1.06-.39 0 .5-.6-.61-1.06-.61ZM19.5 10.76s3.04-.84 6.18 1.5c.9.76 1.76 1.33 1.15 2.12-.34.34-.64.66-1.72-.53a6.92 6.92 0 0 0-5.61-1.44c-1.13.24-1.96.55-3.56 2.15a8.27 8.27 0 0 1-6.5 2.5c-2.52-.24-3.84-1.27-5.24-2.55-.3-.42-.3-.87-.12-1.13.17-.26.83-.52 1.2-.13.37.4 2.1 1.97 3.82 2.07 1.72.1 3.44.21 5.74-1.96 2.3-2.18 3.46-2.34 4.66-2.6Z" fill="#fff"/><mask id="a" fill="#fff"><path d="M29.65 27.82V9.16c0-.58-.38-.65-.53-.66h-.5c-.5 0-.54.56-.54.74V27.84a2.68 2.68 0 0 1-.82 1.89c-.81.7-1.62.6-1.62.6s-20.18 0-20.66-.03a2.3 2.3 0 0 1-1.6-1c-.57-.8-.46-1.85-.46-1.85V9.3c0-.83-.67-.8-.67-.8h-.3c-.54 0-.6.58-.6.77v18.54c0 1.33.46 2.4 1.55 3.33 1.1.94 2.38.86 2.38.86h20.58c.86 0 1.98-.42 2.91-1.56.93-1.14.88-2.63.88-2.63Z"/></mask><path d="M29.65 27.82V9.16c0-.58-.38-.65-.53-.66h-.5c-.5 0-.54.56-.54.74V27.84a2.68 2.68 0 0 1-.82 1.89c-.81.7-1.62.6-1.62.6s-20.18 0-20.66-.03a2.3 2.3 0 0 1-1.6-1c-.57-.8-.46-1.85-.46-1.85V9.3c0-.83-.67-.8-.67-.8h-.3c-.54 0-.6.58-.6.77v18.54c0 1.33.46 2.4 1.55 3.33 1.1.94 2.38.86 2.38.86h20.58c.86 0 1.98-.42 2.91-1.56.93-1.14.88-2.63.88-2.63Z" fill="#fff"/><path d="M29.65 27.82h-20v.38l.01.39 19.99-.77ZM29.12 8.5l.71-19.99h-.71v20Zm-1.04.74-20-.15V9.24h20Zm0 .06h-20 20Zm0 18.54-19.99-.76v.02l19.99.74Zm-.82 1.89 13.03 15.16.44-.37.4-.4-13.87-14.4Zm-1.62.6 2.26-19.87-1.13-.13h-1.13v20ZM4.98 30.3l-3.4 19.71 1.14.2 1.15.06L4.98 30.3Zm-1.6-1-16.35 11.52L3.39 29.3Zm-.46-1.85 19.9 2.1.1-1.05v-1.05h-20ZM2.25 8.5v20h.39l.38-.01L2.25 8.5Zm-.9.78-20-.29V9.28h20ZM2.9 31.15l-13.02 15.18L2.9 31.15Zm2.38.86V12h-.65l-.64.04 1.29 19.96Zm23.5-1.56L44.25 43.1 28.78 30.45Zm20.87-2.63V9.16h-40v18.66h40Zm0-18.66a20.54 20.54 0 0 0-19.81-20.64L28.4 28.48A19.46 19.46 0 0 1 9.65 9.16h40ZM29.12-11.5h-.5v40h.5v-40Zm-.5 0A20.47 20.47 0 0 0 9.92.62c-1.8 4-1.83 7.56-1.84 8.47l40 .3c0 .73-.02 3.91-1.67 7.6a19.47 19.47 0 0 1-17.8 11.51v-40ZM8.08 9.24v.05h40v-.04h-40Zm0 .05v.01h40-40Zm0 .02v10.51a8359.27 8359.27 0 0 1 0 7.25c0 .79 0 .45.01.01l39.97 1.52c.02-.51.02-1.37.02-1.45a1362.33 1362.33 0 0 0 0-7.34V9.3l-40 .02Zm.01 17.79c.05-1.35.38-7.05 5.28-11.77l27.77 28.8a22.68 22.68 0 0 0 6.92-15.54L8.1 27.09Zm6.13-12.54a17.51 17.51 0 0 1 12.43-4.2 19.31 19.31 0 0 1 1.17.1h.06s.02 0-2.24 19.87a2063.4 2063.4 0 0 0-2.24 19.88h.05a14.8 14.8 0 0 0 1.25.1 21.38 21.38 0 0 0 5.56-.45A22.49 22.49 0 0 0 40.3 44.9L14.22 14.56Zm11.42 15.77v-20h-3.16a17381.94 17381.94 0 0 1-16.39-.02c-1.07 0-.61 0 0 .03L3.88 50.27c.97.06 7.17.06 11.6.06h10.16v-20ZM8.38 10.6c.43.08 2.52.43 4.93 1.66 2.57 1.3 4.78 3.2 6.4 5.51l-32.67 23.07c5 7.08 11.87 8.72 14.55 9.18L8.38 10.6Zm11.34 7.18a17.34 17.34 0 0 1 3.13 11.4 21.7 21.7 0 0 1-.03.28v.08c0 .01 0 .02-19.9-2.08l-19.89-2.09v.09a31.34 31.34 0 0 0-.07.78 22.65 22.65 0 0 0 .12 4.2 22.66 22.66 0 0 0 3.95 10.4l32.69-23.06Zm3.2 9.68V9.3h-40v18.14h40Zm0-18.14A20.74 20.74 0 0 0 3.28-11.47a20.44 20.44 0 0 0-1.76-.01H1.5c-.01 0-.03 0 .75 19.98C3.02 28.5 3 28.5 3 28.5h-.07a28.65 28.65 0 0 1-1.65-.01 19.35 19.35 0 0 1-16-10.04 19.03 19.03 0 0 1-2.36-9.13h40ZM2.25-11.49h-.3v40h.3v-40Zm-.3 0A20.52 20.52 0 0 0-16.68.34 21.17 21.17 0 0 0-18.64 9l40 .58c-.02.76-.05 4-1.8 7.72A19.44 19.44 0 0 1 1.95 28.5v-40Zm-20.6 20.77V27.82h40V9.28h-40Zm0 18.54c0 7.06 2.92 13.7 8.53 18.51l26.05-30.35a15.62 15.62 0 0 1 4 5.37 15.72 15.72 0 0 1 1.42 6.47h-40Zm8.53 18.51a23.59 23.59 0 0 0 16.56 5.65h.06l.03-.01h.01c.01 0 .02 0-1.26-19.96a2536.38 2536.38 0 0 1-1.26-19.96h.03A537.28 537.28 0 0 1 5 12a17.44 17.44 0 0 1 3.65.36c1.88.4 4.64 1.34 7.29 3.6l-26.05 30.36Zm15.4-14.32v20H25.91l-.1-40H5.27v20ZM25.9 52c7.1-.02 13.8-3.34 18.35-8.9L13.3 17.8A16.17 16.17 0 0 1 25.8 12l.11 40Zm18.36-8.91a23.97 23.97 0 0 0 5.38-15.11 22.37 22.37 0 0 0-.02-.9v-.04l-19.98.77-19.99.76v-.04a23.42 23.42 0 0 1 .01-1.62 16.04 16.04 0 0 1 3.6-9.11l31 25.29Z" fill="#fff" mask="url(#a)"/></svg>