<svg width="191" height="38" viewBox="0 0 191 38" fill="none" xmlns="http://www.w3.org/2000/svg">
<g id="mobile-logo" clip-path="url(#clip0_53437_377)">
<path id="up-circle" d="M6.0117 20.9349V18.6514C12.6311 17.7242 19.3065 17.2752 25.988 17.3076C25.988 17.9139 25.988 18.5302 25.9286 19.1465C27.8277 18.2867 29.8236 17.6691 31.8709 17.3076C30.5661 13.8643 28.1884 10.9536 25.1037 9.02347C22.0189 7.09332 18.398 6.25055 14.7979 6.62482C11.1978 6.9991 7.81798 8.56967 5.1783 11.095C2.53863 13.6202 0.785349 16.9603 0.188171 20.6014L6.0117 20.9349Z" fill="#FDC305"/>
<path id="right-circle" d="M26.9784 24.4813C25.8295 25.7745 25.6017 25.6937 25.6017 27.967C25.6017 28.8865 25.6017 32.9178 25.6017 37.2422C27.8723 35.7125 29.7362 33.6331 31.0271 31.1895C32.3181 28.746 32.9959 26.0143 33 23.2385C32.9869 22.1869 32.8809 21.1385 32.6831 20.1064C30.6312 21.3486 28.7183 22.8156 26.9784 24.4813Z" fill="#FDC305"/>
<path id="left-circle" d="M6.29892 25.9867C6.29892 25.9867 2.54532 24.5318 1.15876 24.1377C0.779508 24.0158 0.392293 23.9212 0 23.8548C0.107354 26.7707 0.956315 29.608 2.4635 32.0879C3.97068 34.5679 6.08426 36.6053 8.59664 38L6.29892 25.9867Z" fill="#FDC305"/>
<path id="red-hat" d="M26.0375 17.2975C26.0778 11.7189 25.6136 6.14839 24.651 0.656741C24.651 0.656741 24.5123 -0.646636 23.7695 0.414252C23.1861 1.67533 22.7857 3.01635 22.581 4.39511C18.3638 4.11803 14.1305 4.23302 9.93368 4.73863C9.15127 2.02074 7.77462 0.757778 7.11105 1.01037C6.44749 1.26296 6.39797 4.35469 6.39797 4.35469L6.07114 18.6009C12.6882 17.6875 19.3603 17.252 26.0375 17.2975Z" fill="#F06351"/>
<path id="left-eye" d="M12.2908 14.1452C12.2908 14.0542 13.2812 14.8322 13.6873 15.0747C14.0933 15.3172 14.2914 15.4991 14.2914 15.6708C14.2914 15.8426 14.024 16.0144 13.6675 16.0144C13.3109 16.0144 12.7662 15.8931 12.6771 15.7416H13.608H13.8953C13.2918 15.2863 12.7521 14.7492 12.2908 14.1452V14.1452Z" fill="black"/>
<path id="nose" d="M19.699 14.2563L18.6194 15.6001C18.6194 15.6607 18.4511 15.9537 18.7977 15.9032C19.2079 15.8408 19.6122 15.7428 20.006 15.6102C20.115 15.6102 20.0753 15.4182 19.8971 15.4384C19.7188 15.4587 19.2137 15.489 18.9067 15.5496L19.7386 14.2765C19.7386 14.2765 19.8079 14.1452 19.699 14.2563Z" fill="black"/>
<path id="nose" d="M16.5891 20.4095C17.0482 20.2031 17.4277 19.848 17.6687 19.3991C17.946 18.7424 17.6687 18.4797 17.2329 18.3887C16.6366 18.2777 16.0211 18.4004 15.5096 18.7323C15.1234 19.096 15.1729 19.4597 15.4601 19.7426C15.808 20.0116 16.1873 20.2356 16.5891 20.4095V20.4095Z" fill="black"/>
<path id="moustaches" d="M16.193 21.6724C16.082 21.9033 15.9271 22.1094 15.7374 22.2787C15.4553 22.5102 15.1086 22.6446 14.747 22.6626C14.2259 22.705 13.7077 22.5504 13.2911 22.2281C13.0953 22.1077 12.9183 21.9578 12.7662 21.7836C12.6667 21.6715 12.5452 21.582 12.4097 21.5209C12.4097 21.5209 13.1525 25.6634 14.955 26.3201C16.7575 26.9769 17.0744 25.5624 17.1339 25.1784C17.1934 24.0318 16.9102 22.8937 16.3217 21.9149C16.3019 21.6017 16.292 21.8038 16.193 21.6724Z" fill="#F06351"/>
<path id="red-underhead" d="M25.988 19.1162C24.2097 20.7567 22.5327 22.508 20.9667 24.36C19.4104 26.2051 17.6526 27.8627 15.7275 29.3007C15.5096 28.7652 14.123 27.7751 14.123 27.7751C14.123 27.7751 11.0231 25.6129 8.9928 23.9154C7.89756 22.9731 6.86216 21.9607 5.89286 20.8843L3.91206 20.7732C6.77448 25.0224 10.9639 28.1565 15.7968 29.6645C16.6486 29.523 19.0354 27.7852 20.8181 26.3706C22.9167 24.5337 24.8827 22.5448 26.7011 20.4196C27.1988 19.8245 27.5818 19.1389 27.8301 18.3988C26.7407 18.7929 25.988 19.1162 25.988 19.1162Z" fill="#F06351"/>
</g>
<g id="cat-energy mobile" clip-path="url(#clip1_53437_377)">
<path d="M91.2645 29.346C90.3696 28.0847 89.9253 26.5725 90 25.0418V18.6623C89.8916 17.1151 90.3081 15.5761 91.1855 14.2812C92.0548 13.282 93.3983 12.8209 95.374 12.8209C97.3498 12.8209 98.6143 13.282 99.4045 14.1275C100.263 15.1984 100.685 16.5392 100.59 17.8937V19.4309H96.7175V17.6631C96.7488 17.1403 96.6681 16.6168 96.4804 16.1259C96.3802 15.9277 96.2212 15.7633 96.024 15.6537C95.8269 15.5441 95.6005 15.4944 95.374 15.511C94.8208 15.511 94.4257 15.6647 94.2676 16.049C94.0888 16.5951 94.0086 17.1672 94.0305 17.74V25.9641C93.9888 26.5198 94.0978 27.0763 94.3466 27.5782C94.5047 27.9625 94.8999 28.1162 95.4531 28.1162C96.0063 28.1162 96.3224 27.9625 96.4804 27.5782C96.6601 27.0587 96.7405 26.5117 96.7175 25.9641V24.1194H100.59V25.6567C100.67 27.0332 100.251 28.3935 99.4045 29.4997C98.6143 30.422 97.2707 30.8832 95.374 30.8832C93.4773 30.8063 92.0548 30.3452 91.2645 29.346Z" fill="#111111"/>
<path d="M105.253 13.0527H109.757L113.077 30.577H109.441L108.809 26.8877H106.201L105.569 30.577H101.854L105.253 13.0527ZM108.493 24.5818L107.545 17.7412L106.596 24.5818H108.493Z" fill="#111111"/>
<path d="M115.857 16H113V13H123V15.9211H120.143V31H115.857V16Z" fill="#111111"/>
<path d="M129.752 13.0527H136.707V14.8974H132.202V20.6619H135.837V22.4297H132.202V28.8861H136.707V30.6539H129.673V13.0527H129.752Z" fill="#111111"/>
<path d="M138.761 13.0527H140.5L145.637 24.6587V13.0527H147.692V30.577H146.111L140.895 18.5867V30.577H138.761V13.0527Z" fill="#111111"/>
<path d="M150.063 13.0527H157.017V14.8974H152.513V20.6619H156.148V22.4297H152.513V28.8861H157.017V30.6539H150.063V13.0527Z" fill="#111111"/>
<path d="M159.072 13.0528H162.707C164.137 12.9568 165.559 13.3362 166.738 14.1289C167.607 14.8206 168.002 16.0504 168.002 17.6645C168.002 19.8935 167.291 21.277 165.79 21.7381L168.318 30.5003H165.869L163.498 22.2762H161.522V30.5003H158.993V13.0528H159.072ZM162.549 20.5852C163.364 20.6505 164.176 20.4326 164.841 19.9703C165.315 19.586 165.552 18.8174 165.552 17.6645C165.574 17.0918 165.494 16.5197 165.315 15.9736C165.137 15.5817 164.832 15.2576 164.446 15.0512C163.902 14.81 163.304 14.7043 162.707 14.7438H161.601V20.5084H162.549V20.5852Z" fill="#111111"/>
<path d="M171.164 29.2702C170.342 27.9264 169.956 26.3727 170.057 24.8123V18.9709C170.038 17.857 170.171 16.7456 170.452 15.6659C170.717 14.859 171.244 14.1576 171.954 13.6675C172.836 13.1595 173.854 12.9186 174.878 12.9757C176.538 12.9757 177.723 13.36 178.434 14.2055C179.252 15.3219 179.644 16.6813 179.541 18.0485V18.6634H177.17V18.1254C177.173 17.4817 177.12 16.8389 177.012 16.2039C176.945 15.8026 176.718 15.4434 176.379 15.2047C175.935 14.9211 175.408 14.7862 174.878 14.8204C174.311 14.7851 173.75 14.9487 173.297 15.2815C173.111 15.4339 172.959 15.6215 172.851 15.833C172.742 16.0445 172.679 16.2753 172.665 16.5113C172.561 17.1985 172.508 17.892 172.507 18.5866V25.1198C172.449 26.1151 172.61 27.111 172.981 28.0405C173.297 28.6554 173.93 28.8859 174.878 28.8859C175.252 28.9313 175.632 28.868 175.97 28.7039C176.307 28.5397 176.587 28.2822 176.775 27.9636C177.192 26.9917 177.381 25.9413 177.328 24.8892V23.6594H175.036V21.8916H179.62V30.5769H178.039L177.802 28.5785C177.595 29.2482 177.163 29.8314 176.576 30.2353C175.989 30.6391 175.28 30.8406 174.562 30.8075C173.909 30.8448 173.256 30.7239 172.663 30.4556C172.07 30.1873 171.555 29.78 171.164 29.2702V29.2702Z" fill="#111111"/>
<path d="M184.798 24.6564L181 13H183.326L186.039 21.7225L188.674 13H191L187.202 24.6564V31H184.876V24.6564H184.798Z" fill="#111111"/>
</g>
<defs>
<clipPath id="clip0_53437_377">
<rect width="33" height="38" fill="white"/>
</clipPath>
<clipPath id="clip1_53437_377">
<rect width="101" height="17.9855" fill="white" transform="translate(90 12.8209)"/>
</clipPath>
</defs>
</svg>
